<svg xmlns="http://www.w3.org/2000/svg" viewBox="0 0 64 64">
  <!-- Bowl rim -->
  <circle cx="32" cy="32" r="30" fill="#8B7B5E"/>
  <circle cx="32" cy="32" r="27" fill="#7B6B4F"/>
  <!-- Rice base -->
  <circle cx="32" cy="32" r="24" fill="#FEFEFE"/>
  <!-- Sauce tint -->
  <circle cx="32" cy="32" r="24" fill="#D4462A" opacity="0.15"/>
  <!-- Bomdong -->
  <ellipse cx="22" cy="28" rx="8" ry="5" fill="#6DBE45" transform="rotate(-15 22 28)"/>
  <ellipse cx="22" cy="28" rx="5" ry="3.5" fill="#8DC63F" transform="rotate(-15 22 28)"/>
  <!-- Egg -->
  <ellipse cx="32" cy="30" rx="7" ry="6" fill="#FFFEF8"/>
  <circle cx="32" cy="29" r="3" fill="#FFB300"/>
  <!-- Gochugaru flakes -->
  <ellipse cx="42" cy="28" rx="3" ry="2" fill="#E64A19" transform="rotate(20 42 28)"/>
  <ellipse cx="38" cy="36" rx="2.5" ry="1.5" fill="#E64A19" transform="rotate(-10 38 36)"/>
  <!-- Sesame seeds -->
  <ellipse cx="26" cy="38" rx="1.5" ry="0.8" fill="#F5E6B8" transform="rotate(15 26 38)"/>
  <ellipse cx="38" cy="24" rx="1.5" ry="0.8" fill="#F5E6B8" transform="rotate(-20 38 24)"/>
  <ellipse cx="34" cy="40" rx="1.5" ry="0.8" fill="#F5E6B8" transform="rotate(30 34 40)"/>
</svg>
